HIERARCHY
ROOT hip
{
	OFFSET 0.000000 0.000000 0.000000 
	CHANNELS 6 Xposition Yposition Zposition Xrotation Zrotation Yrotation
	JOINT abdomen
	{
		OFFSET 0.000000 3.402643 0.000000 
		CHANNELS 3 Xrotation Zrotation Yrotation
		JOINT chest
		{
			OFFSET 0.000000 8.438565 -0.680529 
			CHANNELS 3 Xrotation Zrotation Yrotation
			JOINT neck
			{
				OFFSET 0.000000 10.207942 -0.272212 
				CHANNELS 3 Xrotation Zrotation Yrotation
				JOINT head
				{
					OFFSET 0.000000 3.130431 0.000000 
					CHANNELS 3 Xrotation Zrotation Yrotation
					End Site
					{
						OFFSET 0.000000 3.130435 0.000000 
					}
				}
			}
			JOINT lCollar
			{
				OFFSET 3.470700 6.669187 -0.816635 
				CHANNELS 3 Yrotation Zrotation Xrotation
				JOINT lShldr
				{
					OFFSET 3.198488 0.000000 0.000000 
					CHANNELS 3 Zrotation Yrotation Xrotation
					JOINT lForeArm
					{
						OFFSET 10.139888 0.000000 0.000000 
						CHANNELS 3 Yrotation Zrotation Xrotation
						JOINT lHand
						{
							OFFSET 8.370511 0.000000 0.000000 
							CHANNELS 3 Zrotation Yrotation Xrotation
							End Site
							{
								OFFSET 4.083176 0.000000 0.000000 
							}
						}
					}
				}
			}
			JOINT rCollar
			{
				OFFSET -3.470700 6.669187 -0.816635 
				CHANNELS 3 Yrotation Zrotation Xrotation
				JOINT rShldr
				{
					OFFSET -3.198488 0.000000 0.000000 
					CHANNELS 3 Zrotation Yrotation Xrotation
					JOINT rForeArm
					{
						OFFSET -10.139888 0.000000 0.000000 
						CHANNELS 3 Yrotation Zrotation Xrotation
						JOINT rHand
						{
							OFFSET -8.370511 0.000000 0.000000 
							CHANNELS 3 Zrotation Yrotation Xrotation
							End Site
							{
								OFFSET -4.083176 0.000000 0.000000 
							}
						}
					}
				}
			}
		}
	}
	JOINT lThigh
	{
		OFFSET 5.308129 -1.633274 1.361059 
		CHANNELS 3 Xrotation Zrotation Yrotation
		JOINT lShin
		{
			OFFSET -2.041588 -20.007561 0.000000 
			CHANNELS 3 Xrotation Zrotation Yrotation
			JOINT lFoot
			{
				OFFSET 0.000000 -19.190928 -1.224953 
				CHANNELS 3 Xrotation Yrotation Zrotation
				End Site
				{
					OFFSET 0.000000 -2.449906 4.627600 
				}
			}
		}
	}
	JOINT rThigh
	{
		OFFSET -5.308129 -1.633274 1.361059 
		CHANNELS 3 Xrotation Zrotation Yrotation
		JOINT rShin
		{
			OFFSET 2.041588 -20.007561 0.000000 
			CHANNELS 3 Xrotation Zrotation Yrotation
			JOINT rFoot
			{
				OFFSET 0.000000 -19.190928 -1.224953 
				CHANNELS 3 Xrotation Yrotation Zrotation
				End Site
				{
					OFFSET 0.000000 -2.449906 4.627600 
				}
			}
		}
	}
}
MOTION
Frames: 8
Frame Time: 0.033333
-0.063029 43.500465 0.276298 -0.254154 -2.529272 87.120583 0.000000 0.000000 0.000000 2.657261 -1.580331 6.039704 9.954409 1.442439 0.065305 -12.190090 -2.583913 -14.937309 1.479712 30.000000 23.438847 -80.828850 11.331450 -18.616917 -50.951485 -10.248944 -100.224464 15.654288 13.090549 55.234921 -13.398627 -23.837711 18.543779 66.970100 -21.437855 75.380592 62.836250 -46.309593 77.433708 -41.525845 49.702957 -19.632179 5.965172 8.592300 20.106308 59.033142 5.076632 -1.442831 6.323974 -5.992833 -18.353403 -3.803578 4.232167 2.526386 17.417215 1.070350 0.810590 -9.238170 -7.621989 18.100973 
-0.171271 43.518513 0.467049 -0.957832 -2.343423 87.158272 0.000000 0.000000 0.000000 3.105825 -0.867864 6.183238 9.825450 0.893676 0.023261 -12.262181 -2.199324 -14.836006 2.491972 30.000000 22.860620 -81.600212 13.111930 -18.518894 -52.983395 -14.617640 -94.612556 15.570213 14.886450 55.541382 -12.778297 -24.980759 18.541813 67.738907 -18.975721 75.428078 54.749546 -49.255634 73.725632 -40.744812 47.996635 -19.527895 0.898100 10.214861 20.698547 65.764130 7.219597 -1.207615 9.360884 -4.117608 -18.141584 -1.589771 5.265755 2.769156 16.841902 0.885346 0.729664 -10.408388 -7.581725 17.427107 
-0.326280 43.584675 0.556418 -1.182420 -2.079636 86.419838 0.000000 0.000000 0.000000 3.603612 -0.419092 6.272363 9.931646 0.040792 -0.039850 -12.295275 -1.742603 -14.041783 4.103794 30.000000 22.004570 -82.137833 16.113577 -18.919050 -55.520016 -19.944408 -89.860733 15.677179 16.559574 55.943924 -11.442950 -26.286764 18.880486 68.401543 -15.897465 75.197266 44.841980 -51.467052 69.546120 -39.767323 45.432213 -19.465670 -3.633130 10.886641 20.792826 69.640350 7.994170 -1.126364 9.188674 -1.239133 -17.539785 0.898389 5.702445 2.820436 16.271790 0.563744 0.594957 -11.701575 -6.190350 18.034496 
-0.517607 43.654720 0.581455 -1.182565 -2.265143 85.290855 0.000000 0.000000 0.000000 3.564457 -0.087721 6.342177 10.050072 -0.895120 -0.102386 -12.202229 -1.223287 -13.031424 5.844524 30.000000 21.136864 -82.522392 19.619427 -19.678410 -57.815079 -26.022814 -85.761162 15.890855 18.074297 56.371334 -10.010966 -27.544916 19.311806 68.808548 -12.572066 74.690712 33.853352 -52.281490 64.755211 -38.659149 42.074406 -19.456295 -7.986430 11.165199 20.663662 70.753738 7.668714 -1.239398 7.477433 1.796291 -17.003912 2.880846 5.820106 2.819715 15.577498 0.280869 0.492203 -12.980291 -4.718386 18.567278 
-0.724951 43.736416 0.580823 -1.368390 -2.401659 83.856133 0.000000 0.000000 0.000000 3.632939 0.477554 6.465948 10.044780 -1.917606 -0.179989 -12.081626 -0.685211 -11.850685 7.617310 30.000000 20.294708 -82.709732 23.279144 -20.849274 -59.655506 -32.806950 -82.063019 15.938692 19.233839 56.676346 -8.448362 -28.783251 19.876297 69.234291 -8.816578 74.110176 21.397596 -51.152092 58.355770 -37.777126 37.845444 -19.806662 -11.464036 11.658219 20.572147 69.278290 6.643613 -1.445837 5.432631 4.378527 -17.249331 4.871011 6.100943 2.851115 14.743494 -0.033820 0.345004 -14.290005 -3.177521 18.836519 
-0.947457 43.818237 0.545327 -1.563896 -2.420974 82.605080 0.000000 0.000000 0.000000 3.887316 1.003546 6.582021 9.952682 -2.704859 -0.239847 -12.070560 -0.274103 -10.941492 8.898208 29.404276 19.774332 -82.941917 26.759525 -22.155497 -61.227341 -40.063705 -78.858788 16.340145 20.184950 57.106628 -7.155041 -29.735359 20.395081 69.144402 -4.701982 73.103897 9.273417 -47.117336 51.346397 -36.953175 32.034313 -20.611898 -14.150239 11.991920 20.427620 65.222694 5.355227 -1.603614 3.691791 5.895997 -17.423834 7.084846 6.236198 2.854944 13.776897 -0.275144 0.224798 -15.453539 -1.690651 19.296535 
-1.185564 43.864197 0.464696 -1.593421 -2.586891 81.819908 0.000000 0.000000 0.000000 4.014685 1.285900 6.643173 9.828501 -3.038317 -0.263110 -12.255860 0.009126 -10.550352 9.316377 28.576258 19.693466 -83.401596 29.672340 -23.253595 -62.425423 -47.175400 -76.327904 16.914488 21.345341 57.716949 -6.552471 -30.000000 20.638641 67.978760 -0.747555 71.462547 0.473351 -41.032627 46.272781 -35.947765 25.143518 -21.497929 -16.371784 11.876937 20.164373 59.195160 4.039264 -1.668061 2.499337 6.176021 -17.404629 9.115977 6.119964 2.785626 12.827535 -0.480038 0.083458 -16.520975 -0.601172 19.338974 
-1.395106 43.856800 0.355253 -1.339481 -2.792207 81.588623 0.000000 0.000000 0.000000 4.053524 1.129980 6.603686 9.632079 -2.946759 -0.255598 -12.470776 0.145799 -10.700717 8.994631 28.169647 19.916502 -83.946487 31.801003 -23.998173 -62.846600 -53.826492 -73.813797 17.054020 22.815908 58.261211 -6.581851 -30.000000 20.587152 66.089645 2.231585 69.648666 -4.975684 -34.932686 42.576984 -34.132523 18.950806 -21.774811 -17.839231 11.256511 19.770987 51.990803 2.604858 -1.682760 1.924178 5.796615 -17.332617 10.882856 5.641842 2.622442 12.133312 -0.528702 0.026131 -17.558233 -0.237502 19.065418 
